# xmcd CD database file
#
# Track frame offsets:
#	150
#	15852
#	37228
#	50440
#	65312
#	79255
#	95050
#	106612
#	121118
#	137132
#	155956
#	177633
#	190515
#	202883
#	204439
#	217805
#	229462
#	248700
#	264431
#	273209
#
# Disc length: 4034 seconds
#
# Revision: 0
# Processed by: cddbd v1.5.2PL0 Copyright (c) Steve Scherf et al.
# Submitted via: CDex 1.51
#
DISCID=140fc014
DTITLE=Scott Miller and The Commonwealth - Reconstruction
DYEAR=2007
DGENRE=Country
TTITLE0=I Made A Mess of This Town
TTITLE1=Amtrak Crescent
TTITLE2=Angels Dwell
TTITLE3=Jody
TTITLE4=Eight Miles Per Gallon
TTITLE5=Arianne
TTITLE6=It Didn't Take Too Long
TTITLE7=Only Everything
TTITLE8=Dear Sarah
TTITLE9=Freedom's A Stranger
TTITLE10=Still People Are Moving
TTITLE11=On A Roll
TTITLE12=Wild Things
TTITLE13=Intro
TTITLE14=For Jack Tymon
TTITLE15=Drunk All Around This Town
TTITLE16=Spike
TTITLE17=Hawks and Doves
TTITLE18=Goddamn The Sun
TTITLE19=Is There Room On The Cross?
EXTD=YEAR: 2007
EXTT0=
EXTT1=
EXTT2=
EXTT3=
EXTT4=
EXTT5=
EXTT6=
EXTT7=
EXTT8=
EXTT9=
EXTT10=
EXTT11=
EXTT12=
EXTT13=
EXTT14=
EXTT15=
EXTT16=
EXTT17=
EXTT18=
EXTT19=
PLAYORDER=
